<?xml version="1.0" ?><svg data-name="Слой 1" height="64" id="Слой_1" viewBox="0 0 64 64" width="64" xmlns="http://www.w3.org/2000/svg"><defs><style>.cls-1{fill:#f25c00;}</style></defs><title/><path class="cls-1" d="M63,62H52V34h5a1,1,0,0,0,1-1V27a1,1,0,0,0-1-1H52V3a1,1,0,0,0-1-1H45V1a1,1,0,0,0-2,0V2H37a1,1,0,0,0-1,1V50.043a7.456,7.456,0,0,0-2.062.406,1,1,0,1,0,.684,1.88A5.451,5.451,0,0,1,36,52.043V62H31.721l-.358-1.073A1,1,0,0,0,32,60V27.861a6.124,6.124,0,0,0-.821-3.156,7.205,7.205,0,0,0-1.632-1.872,2.455,2.455,0,0,0-3.1-.02c-.161.129-.3.289-.451.434V15.722A1.993,1.993,0,0,0,27,14V7.008a6.441,6.441,0,0,0-.9-3.347A10.511,10.511,0,0,0,23.472.791,2.434,2.434,0,0,0,20.512.8a10.755,10.755,0,0,0-2.68,3.116A6.559,6.559,0,0,0,17,7.153V14a1.993,1.993,0,0,0,1,1.722v7.516a7.1,7.1,0,0,0-.57-.5,2.352,2.352,0,0,0-2.863-.018,6.946,6.946,0,0,0-1.979,2.4h0a5.987,5.987,0,0,0-.588,2.7v13a8.007,8.007,0,0,0-2.519-.766q.018-.28.019-.561A8.51,8.51,0,0,0,1,31a1,1,0,0,0,0,2,6.508,6.508,0,0,1,6.5,6.5,6.538,6.538,0,0,1-.132,1.308,1,1,0,0,0,.211.84,1.032,1.032,0,0,0,.788.36L8.5,42A5.99,5.99,0,0,1,12,43.154V60a1,1,0,0,0,.637.927L12.279,62H1a1,1,0,0,0,0,2H63a1,1,0,0,0,0-2ZM56,32H52V28h4ZM14,59V54.591L14.8,59Zm6-43h4V47.586l-.707.707a1,1,0,0,0-.277.528L22,54.41l-1.016-5.588a1,1,0,0,0-.277-.528L20,47.586V16ZM18,59h-.8l.8-4.409Zm2,0V54.591L20.8,59Zm4-4.409V59h-.8ZM26,59V54.591L26.8,59Zm4,0h-.8l.8-4.409ZM26.56,25.688A4.979,4.979,0,0,1,27.7,24.375a.457.457,0,0,1,.589.014,5.179,5.179,0,0,1,1.174,1.346A4.128,4.128,0,0,1,30,27.861V47.586l-.707.707a1,1,0,0,0-.277.528L28,54.41l-1.016-5.588a1,1,0,0,0-.277-.528L26,47.586V27.862A4.22,4.22,0,0,1,26.56,25.688ZM19,7.153a4.563,4.563,0,0,1,.571-2.25,8.716,8.716,0,0,1,2.167-2.524.413.413,0,0,1,.254-.085.446.446,0,0,1,.271.091A8.608,8.608,0,0,1,24.393,4.7,4.447,4.447,0,0,1,25,7.008V14H19ZM14.377,26.021a5,5,0,0,1,1.4-1.708.362.362,0,0,1,.424.011,5.178,5.178,0,0,1,1.258,1.412A4.128,4.128,0,0,1,18,27.861V47.586l-.707.707a1,1,0,0,0-.277.528L16,54.41l-1.016-5.588a1,1,0,0,0-.277-.528L14,47.586V27.824A4.018,4.018,0,0,1,14.377,26.021ZM14.387,62l.334-1h2.558l.334,1Zm6,0,.334-1h2.558l.334,1Zm6,0,.334-1h2.558l.334,1ZM38,62V4H50V8H40a1,1,0,0,0,0,2H50v4H40a1,1,0,0,0,0,2H50v4H40a1,1,0,0,0,0,2H50v4H40a1,1,0,0,0,0,2H50v4H40a1,1,0,0,0,0,2H50v4H40a1,1,0,0,0,0,2H50v4H40a1,1,0,0,0,0,2H50v4H40a1,1,0,0,0,0,2H50v4H40a1,1,0,0,0,0,2H50v4Z"/><path class="cls-1" d="M54.214,42.041l-.081-.009a1,1,0,0,0-.2,1.99,4.57,4.57,0,0,1,.824.161,1,1,0,0,0,1.275-.864A6.968,6.968,0,0,1,63,37a1,1,0,0,0,0-2A8.958,8.958,0,0,0,54.214,42.041Z"/></svg>