<?xml version="1.0" ?><svg height="64" viewBox="0 0 64 64" width="64" xmlns="http://www.w3.org/2000/svg"><defs><style>.cls-1{fill:#f25c00;}</style></defs><title/><g data-name="Слой 2" id="Слой_2"><path class="cls-1" d="M63.9,2.164A2.434,2.434,0,0,0,61.8.076a10.744,10.744,0,0,0-4.1.308,6.546,6.546,0,0,0-2.878,1.7L49.979,6.927a1.948,1.948,0,0,0-.512,1.926l-5.314,5.314a7.1,7.1,0,0,0-.052-.754,2.351,2.351,0,0,0-2.011-2.037,6.949,6.949,0,0,0-3.1.3h0a5.991,5.991,0,0,0-2.322,1.491L22.4,27.433h0l-8.485,8.485a.985.985,0,0,0-.206,1.106l-1.655.828a1,1,0,0,0-.26,1.6L16.038,43.7l4.243,4.243,4.243,4.243a1,1,0,0,0,.707.293,1.041,1.041,0,0,0,.16-.013,1,1,0,0,0,.734-.54l.829-1.657a.981.981,0,0,0,1.106-.2L50.785,27.335a6.112,6.112,0,0,0,1.649-2.811,7.163,7.163,0,0,0,.17-2.478,2.452,2.452,0,0,0-2.175-2.2c-.206-.023-.417-.009-.626-.012l5.322-5.322A1.947,1.947,0,0,0,57.051,14l4.943-4.943a6.421,6.421,0,0,0,1.731-3A10.489,10.489,0,0,0,63.9,2.164ZM38.083,14.581a4.025,4.025,0,0,1,1.542-1.008,5,5,0,0,1,2.2-.215.362.362,0,0,1,.292.308,5.161,5.161,0,0,1-.109,1.889,4.113,4.113,0,0,1-1.119,1.876L26.937,31.383h-1a1,1,0,0,0-.569.178L20.7,34.794l3.233-4.67a1,1,0,0,0,.178-.569v-1ZM18.867,39.454l-.567-.567,3.685-2.551Zm5.657,5.657,3.119-3.119L25.09,45.678ZM23.109,43.7l-.567-.567,3.684-2.551Zm-2.829-2.829L23.4,37.75l-2.552,3.685Zm-1.125-7.36L16.6,37.193l-.567-.567ZM15.134,38.55l.9.9h0l.9.9-.472.943-2.28-2.281Zm4.243,4.243.9.9v0h0l.9.9-.472.943-2.28-2.281Zm5.58,6.995-2.28-2.281.943-.471.9.9h0l.9.9Zm2.4-1.848-.567-.567,3.686-2.552ZM50.616,22.258a5.154,5.154,0,0,1-.122,1.782,4.121,4.121,0,0,1-1.123,1.881L35.424,39.868h-1a1,1,0,0,0-.569.178l-4.67,3.233,3.233-4.67a1,1,0,0,0,.178-.569v-1L46.541,23.093a4.219,4.219,0,0,1,1.934-1.141h0a4.939,4.939,0,0,1,1.734-.121A.456.456,0,0,1,50.616,22.258Zm-5.488-.58h0L31.18,35.626h-1a1,1,0,0,0-.569.178l-4.67,3.233,3.233-4.67a1,1,0,0,0,.178-.569v-1L42.3,18.85l0,0,8.383-8.383L52.1,11.877l1.414,1.414Zm16.655-16.1a4.439,4.439,0,0,1-1.2,2.062l-4.943,4.945h0L51.394,8.341,56.235,3.5a4.551,4.551,0,0,1,2-1.187,8.7,8.7,0,0,1,3.317-.252.439.439,0,0,1,.367.375A8.61,8.61,0,0,1,61.783,5.579ZM16.745,48.646,2.7,62.7a1,1,0,0,1-1.414-1.414L15.331,47.232a1,1,0,0,1,1.414,1.414Zm2.122,2.121-8.549,8.55A1,1,0,1,1,8.9,57.9l8.549-8.55a1,1,0,0,1,1.414,1.414Zm2.121.708a1,1,0,0,1,0,1.414L17.417,56.46a1,1,0,0,0,0,1.414,1.022,1.022,0,0,0,1.414,0,1,1,0,1,1,1.415,1.414A3,3,0,1,1,16,55.046l3.571-3.571A1,1,0,0,1,20.988,51.475ZM5.161,53.161l8.049-8.049a1,1,0,0,1,1.414,1.414L6.575,54.575a1,1,0,0,1-1.414-1.414Zm-.558-5.1a3,3,0,0,1,0-4.243,1,1,0,0,1,1.414,1.415,1,1,0,0,0,0,1.413,1.022,1.022,0,0,0,1.414,0h0l3.656-3.656A1,1,0,0,1,12.5,44.4L8.847,48.059h0a3,3,0,0,1-4.243,0ZM4,8A1,1,0,0,1,5,7H7V5A1,1,0,0,1,9,5V7h2a1,1,0,0,1,0,2H9v2a1,1,0,0,1-2,0V9H5A1,1,0,0,1,4,8ZM61,44a1,1,0,0,1-1,1H58v2a1,1,0,0,1-2,0V45H54a1,1,0,0,1,0-2h2V41a1,1,0,0,1,2,0v2h2A1,1,0,0,1,61,44ZM18,5a1,1,0,1,1,1,1A1,1,0,0,1,18,5ZM38,4a1,1,0,1,1,1,1A1,1,0,0,1,38,4ZM15,20a1,1,0,1,1,1,1A1,1,0,0,1,15,20Zm5-2a1,1,0,1,1,1,1A1,1,0,0,1,20,18ZM58,29a1,1,0,1,1,1-1A1,1,0,0,1,58,29ZM37,55a1,1,0,1,1-1-1A1,1,0,0,1,37,55Zm8-4a1,1,0,1,1-1-1A1,1,0,0,1,45,51ZM1,31a1,1,0,1,1,1-1A1,1,0,0,1,1,31ZM57,60a1,1,0,1,1-1-1A1,1,0,0,1,57,60Z"/></g></svg>