<?xml version="1.0" ?><svg data-name="Layer 1" id="Layer_1" viewBox="0 0 64 64" xmlns="http://www.w3.org/2000/svg"><defs><style>.cls-1{fill:#190933;}</style></defs><title/><path class="cls-1" d="M49.28,36.55a3,3,0,0,0-4.24,0L41.5,40.09l-2.43-2.43,5.12-5.12a6,6,0,0,0,0-8.49l-1.41-1.41.83-.84a3,3,0,0,0,1.29.3A3,3,0,0,0,47,17a3.08,3.08,0,0,0-4.24,0h0a3,3,0,0,0-.88,2.12,3,3,0,0,0,.3,1.29l-.84.83L40,19.81a6,6,0,0,0-8.49,0l-5.12,5.12L23.91,22.5,27.45,19a3,3,0,0,0,0-4.24L13.61.88a3.09,3.09,0,0,0-4.25,0L.88,9.36a3,3,0,0,0,0,4.25L14.72,27.45a3,3,0,0,0,4.24,0l3.54-3.54,2.43,2.43-6.19,6.2A9,9,0,1,0,31.46,45.26l6.2-6.19,2.43,2.43L36.55,45a3,3,0,0,0,0,4.24L50.39,63.12a3,3,0,0,0,4.25,0l8.48-8.48a3,3,0,0,0,0-4.25ZM44.19,18.39h0a1,1,0,0,1,1.42,1.42,1,1,0,0,1-1.42,0,1,1,0,0,1,0-1.42ZM19.53,24.06,15.46,20l1.91-1.91,4.07,4.07ZM6.36,16.26l2-2L14,20l-2,2Zm2.69-2.68L11,11.67l5.7,5.7-1.91,1.91ZM6.18,6.89,10.25,11,8.34,12.87,4.27,8.8ZM8.8,4.27l4.07,4.07L11,10.25,6.89,6.18ZM22,12.07l-2,2-5.71-5.7,2-2Zm-2.69,2.68-1.91,1.91L11.67,11l1.91-1.91Zm2.87,6.69-4.07-4.07L20,15.46l4.07,4.07ZM26,17.55l-1.27,1.27L20.7,14.75l2-2L26,16.14A1,1,0,0,1,26,17.55ZM11.49,2a1,1,0,0,1,.7.29l3.36,3.37-2,2L9.51,3.56l1.27-1.27A1,1,0,0,1,11.49,2ZM2,11.49a1,1,0,0,1,.29-.71L3.56,9.51l4.07,4.07-2,2L2.29,12.19A1,1,0,0,1,2,11.49ZM16.14,26l-3.37-3.37,2-2,4.07,4.07L17.55,26A1,1,0,0,1,16.14,26Zm22.4,9.32-.18-.17a2,2,0,0,0-2.83,0l-.71.7a1,1,0,0,1-1.41,0,1,1,0,0,1-.29-.7,1,1,0,0,1,.29-.71l.71-.71a2,2,0,0,0,0-2.83l-1.06-1.06a2,2,0,0,0-2.83,0l-.71.71a1,1,0,0,1-1.41-1.41l.7-.71a2,2,0,0,0,0-2.83l-.17-.18,3.53-3.53,9.9,9.9Zm0-14.14,2.12,2.12h0l2.12,2.12a4,4,0,0,1,.62,4.87L33.67,20.6A4.1,4.1,0,0,1,38.54,21.22Zm-10.61,5,.18.18a1,1,0,0,1,0,1.41l-.71.71a2,2,0,0,0,2.83,2.83l.7-.71a1,1,0,0,1,1.42,0l1.06,1.06a1,1,0,0,1,0,1.42l-.71.7a2,2,0,1,0,2.83,2.83l.71-.71a1,1,0,0,1,1.41,0l.18.18-7.07,7.07-9.9-9.9ZM18.16,39.8a9.24,9.24,0,0,1,6,6,7,7,0,0,1-6-6Zm7.11,6.09a10.31,10.31,0,0,0-7.16-7.16,6.94,6.94,0,0,1,1.38-4l9.8,9.8A6.94,6.94,0,0,1,25.27,45.89ZM57.82,57.11,53.75,53l1.91-1.91,4.07,4.07ZM55.2,59.73l-4.07-4.07L53,53.75l4.07,4.07ZM42,51.93l2-2,5.71,5.7-2,2Zm2.69-2.68,1.91-1.91,5.7,5.7L50.42,55Zm-.25-9.31L48.54,44l-1.91,1.91-4.07-4.07Zm-2.62,2.62,4.07,4.07L44,48.54l-4.07-4.07ZM53,52.33l-5.7-5.7,1.91-1.91,5.7,5.7ZM50,44l2-2,5.71,5.71-2,2Zm-2.8-6.34a1,1,0,0,1,.7.29l3.37,3.37-2,2-4.07-4.07L46.45,38A1,1,0,0,1,47.16,37.67ZM38,46.45l1.27-1.27,4.07,4.07-2,2L38,47.86A1,1,0,0,1,38,46.45ZM51.81,61.71l-3.36-3.37,2-2,4.07,4.07-1.27,1.27A1,1,0,0,1,51.81,61.71Zm9.9-8.49-1.27,1.27-4.07-4.07,2-2,3.37,3.36a1,1,0,0,1,0,1.41Z"/><path class="cls-1" d="M52.85,28.27a1,1,0,0,0,1.42,0A13.1,13.1,0,0,0,35.75,9.73a1,1,0,1,0,1.4,1.43A11.1,11.1,0,0,1,52.84,26.85,1,1,0,0,0,52.85,28.27Z"/><path class="cls-1" d="M32.91,6.92A17.09,17.09,0,0,1,57.08,31.09a1,1,0,0,0,.71,1.7,1,1,0,0,0,.72-.29,19.1,19.1,0,0,0-27-27,1,1,0,0,0,1.41,1.43Z"/><path class="cls-1" d="M48.61,24a1,1,0,0,0,.69.27A1,1,0,0,0,50,24,7.09,7.09,0,0,0,40,14a1,1,0,1,0,1.38,1.45,5.09,5.09,0,0,1,7.19,7.19A1,1,0,0,0,48.61,24Z"/></svg>