<?xml version="1.0" ?><svg height="64" viewBox="0 0 64 64" width="64" xmlns="http://www.w3.org/2000/svg"><defs><style>.cls-1{fill:#f25c00;}</style></defs><title/><g data-name="Слой 5" id="Слой_5"><path class="cls-1" d="M59.207,28.523c-.381-6.817-3.662-15.741-10.133-21.086.19-.1.382-.2.571-.3a1,1,0,0,0,.168-1.68,21.442,21.442,0,0,0-4.062-2.546C34.494-2.4,21.976.261,14.526,4.878a1,1,0,0,0-.159.1,19.74,19.74,0,0,0-4.334,3.581,1,1,0,0,0-.057.1.972.972,0,0,0-.1.177c-.01.023-.03.041-.038.066-.5,1.511-1.015,2.878-1.51,4.2a38.911,38.911,0,0,0-1.894,5.913A42.076,42.076,0,0,0,5.7,27.355c.085,5.842.463,11.554,2.629,13.772a3.889,3.889,0,0,0,3.619.924,6.6,6.6,0,0,1,1.368-.064,6.127,6.127,0,0,1,3.409,2.159c.8.817,1.585,1.692,2.345,2.538a46.48,46.48,0,0,0,4.549,4.61c7.691,6.479,16.85,9.72,25.572,12.483a4.731,4.731,0,0,0,5.841-2.8c.248-.642.494-1.294.749-1.979a3.98,3.98,0,0,0-.7-3.985C58.313,45.478,59.671,36.8,59.207,28.523Zm-2,.111c.439,7.854-.831,16.106-3.842,25.175a57.622,57.622,0,0,1-6.1-2.834l-.154-1.4c1.364.86,2.746,1.664,4.141,2.387a1,1,0,1,0,.92-1.775c-9.19-4.766-17.931-12.816-22.808-21.013a4.609,4.609,0,0,1,1.1-6.012A172.144,172.144,0,0,1,47.315,11.854,1,1,0,0,0,46.3,10.131a174.179,174.179,0,0,0-17.051,11.45,6.585,6.585,0,0,0-2.05,7.666l-1.4-.166c-.445-.861-.86-1.732-1.237-2.6a2.633,2.633,0,0,1,.718-3.052A130.648,130.648,0,0,1,47.123,8.46C53.539,13.317,56.853,22.241,57.211,28.635ZM14.5,7.327a52.543,52.543,0,0,0,4.2,9.713,3.449,3.449,0,0,0,2.376,1.678,3.54,3.54,0,0,0,2.883-.747c2.2-1.8,4.758-3.686,7.828-5.749A3.38,3.38,0,0,0,33.3,9.545,3.421,3.421,0,0,0,32.022,6.71a18.445,18.445,0,0,0-5.533-3.069,1,1,0,0,0-.665,1.887A16.45,16.45,0,0,1,30.76,8.261,1.442,1.442,0,0,1,31.3,9.454a1.4,1.4,0,0,1-.624,1.107c-3.125,2.1-5.735,4.018-7.982,5.864a1.518,1.518,0,0,1-1.252.324,1.43,1.43,0,0,1-1-.7,51.541,51.541,0,0,1-4.192-9.811C23.041,2.363,34.42-.219,44.9,4.721a18.271,18.271,0,0,1,2.4,1.374A131.65,131.65,0,0,0,24,21.9a4.646,4.646,0,0,0-1.264,5.384c.465,1.065.985,2.141,1.546,3.2a1,1,0,0,0,.765.524l3.19.379a52.2,52.2,0,0,0,16.74,16.979l.367,3.34a1,1,0,0,0,.5.757,57.022,57.022,0,0,0,6.93,3.265,2,2,0,0,1,1.224,2.256C39,52.81,28.048,39.7,21.459,29.485A89.125,89.125,0,0,1,11.919,9.466,16.89,16.89,0,0,1,14.5,7.327ZM49.79,61.872c-8.529-2.7-17.477-5.864-24.887-12.106a45.132,45.132,0,0,1-4.349-4.417c-.774-.861-1.574-1.752-2.4-2.6C16.859,41.428,15.4,40.18,13.5,40c-.182-.018-.359-.025-.533-.025a10.859,10.859,0,0,0-1.255.093c-1.019.116-1.491.147-1.959-.333C7.85,37.776,7.739,30.185,7.7,27.326a40,40,0,0,1,.7-7.94A37.649,37.649,0,0,1,10.2,13.8c.181-.485.373-1,.568-1.53a91.393,91.393,0,0,0,9.011,18.3C26.536,41.045,37.8,54.5,53.313,59.862c-.05.13-.1.27-.151.4A2.738,2.738,0,0,1,49.79,61.872ZM63,5a1,1,0,0,1-1,1H60V8a1,1,0,0,1-2,0V6H56a1,1,0,0,1,0-2h2V2a1,1,0,0,1,2,0V4h2A1,1,0,0,1,63,5ZM19,59a1,1,0,0,1-1,1H16v2a1,1,0,0,1-2,0V60H12a1,1,0,0,1,0-2h2V56a1,1,0,0,1,2,0v2h2A1,1,0,0,1,19,59ZM8,51a1,1,0,1,1-1-1A1,1,0,0,1,8,51ZM3,57a1,1,0,1,1-1-1A1,1,0,0,1,3,57ZM62,15a1,1,0,1,1-1-1A1,1,0,0,1,62,15ZM4,9A1,1,0,1,1,3,8,1,1,0,0,1,4,9ZM61,54a1,1,0,1,1-1-1A1,1,0,0,1,61,54ZM5,5A1,1,0,1,1,6,4,1,1,0,0,1,5,5Z"/></g></svg>